<?xml version="1.0" encoding="UTF-8" standalone="no"?>
<!DOCTYPE svg PUBLIC "-//W3C//DTD SVG 1.1//EN"
 "http://www.w3.org/Graphics/SVG/1.1/DTD/svg11.dtd">
<!-- Generated by graphviz version 2.40.1 (20161225.0304)
 -->
<!-- Title: dependencies Pages: 1 -->
<svg width="504pt" height="211pt"
 viewBox="0.00 0.00 504.00 211.00" xmlns="http://www.w3.org/2000/svg" xmlns:xlink="http://www.w3.org/1999/xlink">
<g id="graph0" class="graph" transform="scale(1 1) rotate(0) translate(4 207)">
<title>dependencies</title>
<polygon fill="#ffffff" stroke="transparent" points="-4,4 -4,-207 500,-207 500,4 -4,4"/>
<text text-anchor="start" x="227.0091" y="-42.4" font-family="sans-serif" font-weight="bold" font-size="14.00" fill="#000000">Legend</text>
<polygon fill="#ffffb3" stroke="transparent" points="14,-10 14,-30 34,-30 34,-10 14,-10"/>
<text text-anchor="start" x="37.629" y="-15.4" font-family="sans-serif" font-size="14.00" fill="#000000"> &#160;Declarations</text>
<polygon fill="#8dd3c7" stroke="transparent" points="127,-10 127,-30 147,-30 147,-10 127,-10"/>
<text text-anchor="start" x="150.7251" y="-15.4" font-family="sans-serif" font-size="14.00" fill="#000000"> &#160;Module</text>
<polygon fill="#80b1d3" stroke="transparent" points="213,-10 213,-30 233,-30 233,-10 213,-10"/>
<text text-anchor="start" x="236.7812" y="-15.4" font-family="sans-serif" font-size="14.00" fill="#000000"> &#160;Bootstrap</text>
<polygon fill="#fdb462" stroke="transparent" points="310,-10 310,-30 330,-30 330,-10 310,-10"/>
<text text-anchor="start" x="333.6732" y="-15.4" font-family="sans-serif" font-size="14.00" fill="#000000"> &#160;Providers</text>
<polygon fill="#fb8072" stroke="transparent" points="406,-10 406,-30 426,-30 426,-10 406,-10"/>
<text text-anchor="start" x="429.7258" y="-15.4" font-family="sans-serif" font-size="14.00" fill="#000000"> &#160;Exports</text>
<g id="clust1" class="cluster">
<title>cluster_EditPasswordPageModule</title>
<polygon fill="none" stroke="#000000" stroke-dasharray="1,5" points="68,-70 68,-195 428,-195 428,-70 68,-70"/>
</g>
<g id="clust2" class="cluster">
<title>cluster_EditPasswordPageModule_declarations</title>
<polygon fill="none" stroke="#000000" points="300,-78 300,-130 420,-130 420,-78 300,-78"/>
</g>
<g id="clust4" class="cluster">
<title>cluster_EditPasswordPageModule_imports</title>
<polygon fill="none" stroke="#000000" points="76,-78 76,-130 292,-130 292,-78 76,-78"/>
</g>
<!-- ItemEditorPage -->
<g id="node1" class="node">
<title>ItemEditorPage</title>
<polygon fill="#ffffb3" stroke="#000000" points="411.8627,-122 308.1373,-122 308.1373,-86 411.8627,-86 411.8627,-122"/>
<text text-anchor="middle" x="360" y="-99.8" font-family="Times,serif" font-size="14.00" fill="#000000">ItemEditorPage</text>
</g>
<!-- EditPasswordPageModule -->
<g id="node2" class="node">
<title>EditPasswordPageModule</title>
<polygon fill="#8dd3c7" stroke="#000000" points="342.7492,-187 339.7492,-191 318.7492,-191 315.7492,-187 179.2508,-187 179.2508,-151 342.7492,-151 342.7492,-187"/>
<text text-anchor="middle" x="261" y="-164.8" font-family="Times,serif" font-size="14.00" fill="#000000">EditPasswordPageModule</text>
</g>
<!-- ItemEditorPage&#45;&gt;EditPasswordPageModule -->
<g id="edge1" class="edge">
<title>ItemEditorPage&#45;&gt;EditPasswordPageModule</title>
<path fill="none" stroke="#000000" d="M325.4716,-122.1061C325.4716,-122.1061 325.4716,-140.991 325.4716,-140.991"/>
<polygon fill="#000000" stroke="#000000" points="321.9717,-140.9909 325.4716,-150.991 328.9717,-140.991 321.9717,-140.9909"/>
</g>
<!-- IonicPageModule.forChild(args) -->
<g id="node3" class="node">
<title>IonicPageModule.forChild(args)</title>
<polygon fill="#8dd3c7" stroke="#000000" points="283.6074,-122 280.6074,-126 259.6074,-126 256.6074,-122 84.3926,-122 84.3926,-86 283.6074,-86 283.6074,-122"/>
<text text-anchor="middle" x="184" y="-99.8" font-family="Times,serif" font-size="14.00" fill="#000000">IonicPageModule.forChild(args)</text>
</g>
<!-- IonicPageModule.forChild(args)&#45;&gt;EditPasswordPageModule -->
<g id="edge2" class="edge">
<title>IonicPageModule.forChild(args)&#45;&gt;EditPasswordPageModule</title>
<path fill="none" stroke="#000000" d="M231.3396,-122.1061C231.3396,-122.1061 231.3396,-140.991 231.3396,-140.991"/>
<polygon fill="#000000" stroke="#000000" points="227.8397,-140.9909 231.3396,-150.991 234.8397,-140.991 227.8397,-140.9909"/>
</g>
</g>
</svg>
