<?xml version="1.0" encoding="UTF-8" standalone="no"?>
<!DOCTYPE svg PUBLIC "-//W3C//DTD SVG 1.1//EN"
 "http://www.w3.org/Graphics/SVG/1.1/DTD/svg11.dtd">
<!-- Generated by graphviz version 2.40.1 (20161225.0304)
 -->
<!-- Title: dependencies Pages: 1 -->
<svg width="504pt" height="211pt"
 viewBox="0.00 0.00 504.00 211.00" xmlns="http://www.w3.org/2000/svg" xmlns:xlink="http://www.w3.org/1999/xlink">
<g id="graph0" class="graph" transform="scale(1 1) rotate(0) translate(4 207)">
<title>dependencies</title>
<polygon fill="#ffffff" stroke="transparent" points="-4,4 -4,-207 500,-207 500,4 -4,4"/>
<text text-anchor="start" x="227.0091" y="-42.4" font-family="sans-serif" font-weight="bold" font-size="14.00" fill="#000000">Legend</text>
<polygon fill="#ffffb3" stroke="transparent" points="14,-10 14,-30 34,-30 34,-10 14,-10"/>
<text text-anchor="start" x="37.629" y="-15.4" font-family="sans-serif" font-size="14.00" fill="#000000"> &#160;Declarations</text>
<polygon fill="#8dd3c7" stroke="transparent" points="127,-10 127,-30 147,-30 147,-10 127,-10"/>
<text text-anchor="start" x="150.7251" y="-15.4" font-family="sans-serif" font-size="14.00" fill="#000000"> &#160;Module</text>
<polygon fill="#80b1d3" stroke="transparent" points="213,-10 213,-30 233,-30 233,-10 213,-10"/>
<text text-anchor="start" x="236.7812" y="-15.4" font-family="sans-serif" font-size="14.00" fill="#000000"> &#160;Bootstrap</text>
<polygon fill="#fdb462" stroke="transparent" points="310,-10 310,-30 330,-30 330,-10 310,-10"/>
<text text-anchor="start" x="333.6732" y="-15.4" font-family="sans-serif" font-size="14.00" fill="#000000"> &#160;Providers</text>
<polygon fill="#fb8072" stroke="transparent" points="406,-10 406,-30 426,-30 426,-10 406,-10"/>
<text text-anchor="start" x="429.7258" y="-15.4" font-family="sans-serif" font-size="14.00" fill="#000000"> &#160;Exports</text>
<g id="clust1" class="cluster">
<title>cluster_NewKeychainPageModule</title>
<polygon fill="none" stroke="#000000" stroke-dasharray="1,5" points="58,-70 58,-195 438,-195 438,-70 58,-70"/>
</g>
<g id="clust2" class="cluster">
<title>cluster_NewKeychainPageModule_declarations</title>
<polygon fill="none" stroke="#000000" points="290,-78 290,-130 430,-130 430,-78 290,-78"/>
</g>
<g id="clust4" class="cluster">
<title>cluster_NewKeychainPageModule_imports</title>
<polygon fill="none" stroke="#000000" points="66,-78 66,-130 282,-130 282,-78 66,-78"/>
</g>
<!-- NewKeychainPage -->
<g id="node1" class="node">
<title>NewKeychainPage</title>
<polygon fill="#ffffb3" stroke="#000000" points="421.7809,-122 298.2191,-122 298.2191,-86 421.7809,-86 421.7809,-122"/>
<text text-anchor="middle" x="360" y="-99.8" font-family="Times,serif" font-size="14.00" fill="#000000">NewKeychainPage</text>
</g>
<!-- NewKeychainPageModule -->
<g id="node2" class="node">
<title>NewKeychainPageModule</title>
<polygon fill="#8dd3c7" stroke="#000000" points="343.3305,-187 340.3305,-191 319.3305,-191 316.3305,-187 176.6695,-187 176.6695,-151 343.3305,-151 343.3305,-187"/>
<text text-anchor="middle" x="260" y="-164.8" font-family="Times,serif" font-size="14.00" fill="#000000">NewKeychainPageModule</text>
</g>
<!-- NewKeychainPage&#45;&gt;NewKeychainPageModule -->
<g id="edge1" class="edge">
<title>NewKeychainPage&#45;&gt;NewKeychainPageModule</title>
<path fill="none" stroke="#000000" d="M320.8875,-122.1061C320.8875,-122.1061 320.8875,-140.991 320.8875,-140.991"/>
<polygon fill="#000000" stroke="#000000" points="317.3875,-140.9909 320.8875,-150.991 324.3875,-140.991 317.3875,-140.9909"/>
</g>
<!-- IonicPageModule.forChild(args) -->
<g id="node3" class="node">
<title>IonicPageModule.forChild(args)</title>
<polygon fill="#8dd3c7" stroke="#000000" points="273.6074,-122 270.6074,-126 249.6074,-126 246.6074,-122 74.3926,-122 74.3926,-86 273.6074,-86 273.6074,-122"/>
<text text-anchor="middle" x="174" y="-99.8" font-family="Times,serif" font-size="14.00" fill="#000000">IonicPageModule.forChild(args)</text>
</g>
<!-- IonicPageModule.forChild(args)&#45;&gt;NewKeychainPageModule -->
<g id="edge2" class="edge">
<title>IonicPageModule.forChild(args)&#45;&gt;NewKeychainPageModule</title>
<path fill="none" stroke="#000000" d="M225.0693,-122.1061C225.0693,-122.1061 225.0693,-140.991 225.0693,-140.991"/>
<polygon fill="#000000" stroke="#000000" points="221.5693,-140.9909 225.0693,-150.991 228.5693,-140.991 221.5693,-140.9909"/>
</g>
</g>
</svg>
