<?xml version="1.0" encoding="UTF-8" standalone="no"?>
<!DOCTYPE svg PUBLIC "-//W3C//DTD SVG 1.1//EN"
 "http://www.w3.org/Graphics/SVG/1.1/DTD/svg11.dtd">
<!-- Generated by graphviz version 2.40.1 (20161225.0304)
 -->
<!-- Title: dependencies Pages: 1 -->
<svg width="5303pt" height="284pt"
 viewBox="0.00 0.00 5303.00 284.00" xmlns="http://www.w3.org/2000/svg" xmlns:xlink="http://www.w3.org/1999/xlink">
<g id="graph0" class="graph" transform="scale(1 1) rotate(0) translate(4 280)">
<title>dependencies</title>
<polygon fill="#ffffff" stroke="transparent" points="-4,4 -4,-280 5299,-280 5299,4 -4,4"/>
<text text-anchor="start" x="2626.5091" y="-42.4" font-family="sans-serif" font-weight="bold" font-size="14.00" fill="#000000">Legend</text>
<polygon fill="#ffffb3" stroke="transparent" points="2413.5,-10 2413.5,-30 2433.5,-30 2433.5,-10 2413.5,-10"/>
<text text-anchor="start" x="2437.129" y="-15.4" font-family="sans-serif" font-size="14.00" fill="#000000"> &#160;Declarations</text>
<polygon fill="#8dd3c7" stroke="transparent" points="2526.5,-10 2526.5,-30 2546.5,-30 2546.5,-10 2526.5,-10"/>
<text text-anchor="start" x="2550.2251" y="-15.4" font-family="sans-serif" font-size="14.00" fill="#000000"> &#160;Module</text>
<polygon fill="#80b1d3" stroke="transparent" points="2612.5,-10 2612.5,-30 2632.5,-30 2632.5,-10 2612.5,-10"/>
<text text-anchor="start" x="2636.2812" y="-15.4" font-family="sans-serif" font-size="14.00" fill="#000000"> &#160;Bootstrap</text>
<polygon fill="#fdb462" stroke="transparent" points="2709.5,-10 2709.5,-30 2729.5,-30 2729.5,-10 2709.5,-10"/>
<text text-anchor="start" x="2733.1732" y="-15.4" font-family="sans-serif" font-size="14.00" fill="#000000"> &#160;Providers</text>
<polygon fill="#fb8072" stroke="transparent" points="2805.5,-10 2805.5,-30 2825.5,-30 2825.5,-10 2805.5,-10"/>
<text text-anchor="start" x="2829.2258" y="-15.4" font-family="sans-serif" font-size="14.00" fill="#000000"> &#160;Exports</text>
<g id="clust1" class="cluster">
<title>cluster_AccountsPageModule</title>
<polygon fill="none" stroke="#000000" stroke-dasharray="1,5" points="8,-70 8,-195 360,-195 360,-70 8,-70"/>
</g>
<g id="clust2" class="cluster">
<title>cluster_AccountsPageModule_declarations</title>
<polygon fill="none" stroke="#000000" points="240,-78 240,-130 352,-130 352,-78 240,-78"/>
</g>
<g id="clust4" class="cluster">
<title>cluster_AccountsPageModule_imports</title>
<polygon fill="none" stroke="#000000" points="16,-78 16,-130 232,-130 232,-78 16,-78"/>
</g>
<g id="clust8" class="cluster">
<title>cluster_AppModule</title>
<polygon fill="none" stroke="#000000" stroke-dasharray="1,5" points="1486,-70 1486,-268 5287,-268 5287,-70 1486,-70"/>
</g>
<g id="clust9" class="cluster">
<title>cluster_AppModule_declarations</title>
<polygon fill="none" stroke="#000000" points="1494,-78 1494,-130 2421,-130 2421,-78 1494,-78"/>
</g>
<g id="clust18" class="cluster">
<title>cluster_AppModule_imports</title>
<polygon fill="none" stroke="#000000" points="4140,-78 4140,-130 5279,-130 5279,-78 4140,-78"/>
</g>
<g id="clust20" class="cluster">
<title>cluster_AppModule_bootstrap</title>
<polygon fill="none" stroke="#000000" points="2883,-208 2883,-260 2971,-260 2971,-208 2883,-208"/>
</g>
<g id="clust21" class="cluster">
<title>cluster_AppModule_providers</title>
<polygon fill="none" stroke="#000000" points="2429,-78 2429,-130 4132,-130 4132,-78 2429,-78"/>
</g>
<g id="clust22" class="cluster">
<title>cluster_AuthenticatePageModule</title>
<polygon fill="none" stroke="#000000" stroke-dasharray="1,5" points="1304,-143 1304,-195 1478,-195 1478,-143 1304,-143"/>
</g>
<g id="clust29" class="cluster">
<title>cluster_EditPasswordPageModule</title>
<polygon fill="none" stroke="#000000" stroke-dasharray="1,5" points="1116,-143 1116,-195 1296,-195 1296,-143 1116,-143"/>
</g>
<g id="clust36" class="cluster">
<title>cluster_NewKeychainPageModule</title>
<polygon fill="none" stroke="#000000" stroke-dasharray="1,5" points="368,-143 368,-195 550,-195 550,-143 368,-143"/>
</g>
<g id="clust43" class="cluster">
<title>cluster_PasswordGeneratorPageModule</title>
<polygon fill="none" stroke="#000000" stroke-dasharray="1,5" points="714,-143 714,-195 926,-195 926,-143 714,-143"/>
</g>
<g id="clust50" class="cluster">
<title>cluster_SecureNotesPageModule</title>
<polygon fill="none" stroke="#000000" stroke-dasharray="1,5" points="934,-143 934,-195 1108,-195 1108,-143 934,-143"/>
</g>
<g id="clust57" class="cluster">
<title>cluster_SettingsPageModule</title>
<polygon fill="none" stroke="#000000" stroke-dasharray="1,5" points="558,-143 558,-195 706,-195 706,-143 558,-143"/>
</g>
<!-- AccountsPage -->
<g id="node1" class="node">
<title>AccountsPage</title>
<polygon fill="#ffffb3" stroke="#000000" points="344.0828,-122 247.9172,-122 247.9172,-86 344.0828,-86 344.0828,-122"/>
<text text-anchor="middle" x="296" y="-99.8" font-family="Times,serif" font-size="14.00" fill="#000000">AccountsPage</text>
</g>
<!-- AccountsPageModule -->
<g id="node2" class="node">
<title>AccountsPageModule</title>
<polygon fill="#8dd3c7" stroke="#000000" points="272.6331,-187 269.6331,-191 248.6331,-191 245.6331,-187 133.3669,-187 133.3669,-151 272.6331,-151 272.6331,-187"/>
<text text-anchor="middle" x="203" y="-164.8" font-family="Times,serif" font-size="14.00" fill="#000000">AccountsPageModule</text>
</g>
<!-- AccountsPage&#45;&gt;AccountsPageModule -->
<g id="edge1" class="edge">
<title>AccountsPage&#45;&gt;AccountsPageModule</title>
<path fill="none" stroke="#000000" d="M260.3875,-122.1061C260.3875,-122.1061 260.3875,-140.991 260.3875,-140.991"/>
<polygon fill="#000000" stroke="#000000" points="256.8875,-140.9909 260.3875,-150.991 263.8875,-140.991 256.8875,-140.9909"/>
</g>
<!-- AppModule -->
<g id="node11" class="node">
<title>AppModule</title>
<polygon fill="#8dd3c7" stroke="#000000" points="2968.6571,-187 2965.6571,-191 2944.6571,-191 2941.6571,-187 2885.3429,-187 2885.3429,-151 2968.6571,-151 2968.6571,-187"/>
<text text-anchor="middle" x="2927" y="-164.8" font-family="Times,serif" font-size="14.00" fill="#000000">AppModule</text>
</g>
<!-- AccountsPage&#45;&gt;AppModule -->
<g id="edge5" class="edge">
<title>AccountsPage&#45;&gt;AppModule</title>
<path fill="none" stroke="#000000" d="M344.1335,-98C566.8107,-98 1486.2521,-98 1486.2521,-98 1486.2521,-98 1486.2521,-184 1486.2521,-184 1486.2521,-184 2875.049,-184 2875.049,-184"/>
<polygon fill="#000000" stroke="#000000" points="2875.0491,-187.5001 2885.049,-184 2875.049,-180.5001 2875.0491,-187.5001"/>
</g>
<!-- IonicPageModule.forChild(args) -->
<g id="node3" class="node">
<title>IonicPageModule.forChild(args)</title>
<polygon fill="#8dd3c7" stroke="#000000" points="223.6074,-122 220.6074,-126 199.6074,-126 196.6074,-122 24.3926,-122 24.3926,-86 223.6074,-86 223.6074,-122"/>
<text text-anchor="middle" x="124" y="-99.8" font-family="Times,serif" font-size="14.00" fill="#000000">IonicPageModule.forChild(args)</text>
</g>
<!-- IonicPageModule.forChild(args)&#45;&gt;AccountsPageModule -->
<g id="edge2" class="edge">
<title>IonicPageModule.forChild(args)&#45;&gt;AccountsPageModule</title>
<path fill="none" stroke="#000000" d="M144.48,-122.1061C144.48,-122.1061 144.48,-140.991 144.48,-140.991"/>
<polygon fill="#000000" stroke="#000000" points="140.98,-140.9909 144.48,-150.991 147.98,-140.991 140.98,-140.9909"/>
</g>
<!-- AuthenticatePageModule -->
<g id="node27" class="node">
<title>AuthenticatePageModule</title>
<polygon fill="#8dd3c7" stroke="#000000" points="1470.2893,-187 1467.2893,-191 1446.2893,-191 1443.2893,-187 1311.7107,-187 1311.7107,-151 1470.2893,-151 1470.2893,-187"/>
<text text-anchor="middle" x="1391" y="-164.8" font-family="Times,serif" font-size="14.00" fill="#000000">AuthenticatePageModule</text>
</g>
<!-- IonicPageModule.forChild(args)&#45;&gt;AuthenticatePageModule -->
<g id="edge27" class="edge">
<title>IonicPageModule.forChild(args)&#45;&gt;AuthenticatePageModule</title>
<path fill="none" stroke="#000000" d="M212.2575,-122.08C212.2575,-123.8464 212.2575,-125 212.2575,-125 212.2575,-125 1391,-125 1391,-125 1391,-125 1391,-140.8495 1391,-140.8495"/>
<polygon fill="#000000" stroke="#000000" points="1387.5001,-140.8494 1391,-150.8495 1394.5001,-140.8495 1387.5001,-140.8494"/>
</g>
<!-- EditPasswordPageModule -->
<g id="node28" class="node">
<title>EditPasswordPageModule</title>
<polygon fill="#8dd3c7" stroke="#000000" points="1287.7492,-187 1284.7492,-191 1263.7492,-191 1260.7492,-187 1124.2508,-187 1124.2508,-151 1287.7492,-151 1287.7492,-187"/>
<text text-anchor="middle" x="1206" y="-164.8" font-family="Times,serif" font-size="14.00" fill="#000000">EditPasswordPageModule</text>
</g>
<!-- IonicPageModule.forChild(args)&#45;&gt;EditPasswordPageModule -->
<g id="edge29" class="edge">
<title>IonicPageModule.forChild(args)&#45;&gt;EditPasswordPageModule</title>
<path fill="none" stroke="#000000" d="M200.9612,-122.1903C200.9612,-125.5376 200.9612,-128 200.9612,-128 200.9612,-128 1178.7085,-128 1178.7085,-128 1178.7085,-128 1178.7085,-140.8975 1178.7085,-140.8975"/>
<polygon fill="#000000" stroke="#000000" points="1175.2086,-140.8974 1178.7085,-150.8975 1182.2086,-140.8975 1175.2086,-140.8974"/>
</g>
<!-- NewKeychainPageModule -->
<g id="node29" class="node">
<title>NewKeychainPageModule</title>
<polygon fill="#8dd3c7" stroke="#000000" points="542.3305,-187 539.3305,-191 518.3305,-191 515.3305,-187 375.6695,-187 375.6695,-151 542.3305,-151 542.3305,-187"/>
<text text-anchor="middle" x="459" y="-164.8" font-family="Times,serif" font-size="14.00" fill="#000000">NewKeychainPageModule</text>
</g>
<!-- IonicPageModule.forChild(args)&#45;&gt;NewKeychainPageModule -->
<g id="edge31" class="edge">
<title>IonicPageModule.forChild(args)&#45;&gt;NewKeychainPageModule</title>
<path fill="none" stroke="#000000" d="M155.7762,-122.0439C155.7762,-134.5633 155.7762,-149 155.7762,-149 155.7762,-149 431.1949,-149 431.1949,-149 431.1949,-149 431.1949,-149.1846 431.1949,-149.1846"/>
<polygon fill="#000000" stroke="#000000" points="427.6955,-140.8455 431.1949,-150.8457 434.6955,-140.8459 427.6955,-140.8455"/>
</g>
<!-- PasswordGeneratorPageModule -->
<g id="node30" class="node">
<title>PasswordGeneratorPageModule</title>
<polygon fill="#8dd3c7" stroke="#000000" points="918.3778,-187 915.3778,-191 894.3778,-191 891.3778,-187 721.6222,-187 721.6222,-151 918.3778,-151 918.3778,-187"/>
<text text-anchor="middle" x="820" y="-164.8" font-family="Times,serif" font-size="14.00" fill="#000000">PasswordGeneratorPageModule</text>
</g>
<!-- IonicPageModule.forChild(args)&#45;&gt;PasswordGeneratorPageModule -->
<g id="edge33" class="edge">
<title>IonicPageModule.forChild(args)&#45;&gt;PasswordGeneratorPageModule</title>
<path fill="none" stroke="#000000" d="M178.3687,-122.1274C178.3687,-132.7109 178.3687,-144 178.3687,-144 178.3687,-144 787.2704,-144 787.2704,-144 787.2704,-144 787.2704,-144.6831 787.2704,-144.6831"/>
<polygon fill="#000000" stroke="#000000" points="783.7706,-140.8313 787.2704,-150.8314 790.7706,-140.8314 783.7706,-140.8313"/>
</g>
<!-- SecureNotesPageModule -->
<g id="node31" class="node">
<title>SecureNotesPageModule</title>
<polygon fill="#8dd3c7" stroke="#000000" points="1099.5058,-187 1096.5058,-191 1075.5058,-191 1072.5058,-187 942.4942,-187 942.4942,-151 1099.5058,-151 1099.5058,-187"/>
<text text-anchor="middle" x="1021" y="-164.8" font-family="Times,serif" font-size="14.00" fill="#000000">SecureNotesPageModule</text>
</g>
<!-- IonicPageModule.forChild(args)&#45;&gt;SecureNotesPageModule -->
<g id="edge35" class="edge">
<title>IonicPageModule.forChild(args)&#45;&gt;SecureNotesPageModule</title>
<path fill="none" stroke="#000000" d="M189.665,-122.0664C189.665,-131.4587 189.665,-141 189.665,-141 189.665,-141 994.7492,-141 994.7492,-141 994.7492,-141 994.7492,-141.9793 994.7492,-141.9793"/>
<polygon fill="#000000" stroke="#000000" points="991.2493,-140.793 994.7492,-150.793 998.2493,-140.7931 991.2493,-140.793"/>
</g>
<!-- SettingsPageModule -->
<g id="node32" class="node">
<title>SettingsPageModule</title>
<polygon fill="#8dd3c7" stroke="#000000" points="697.8753,-187 694.8753,-191 673.8753,-191 670.8753,-187 566.1247,-187 566.1247,-151 697.8753,-151 697.8753,-187"/>
<text text-anchor="middle" x="632" y="-164.8" font-family="Times,serif" font-size="14.00" fill="#000000">SettingsPageModule</text>
</g>
<!-- IonicPageModule.forChild(args)&#45;&gt;SettingsPageModule -->
<g id="edge37" class="edge">
<title>IonicPageModule.forChild(args)&#45;&gt;SettingsPageModule</title>
<path fill="none" stroke="#000000" d="M167.0725,-122.0555C167.0725,-133.439 167.0725,-146 167.0725,-146 167.0725,-146 610.0208,-146 610.0208,-146 610.0208,-146 610.0208,-146.4878 610.0208,-146.4878"/>
<polygon fill="#000000" stroke="#000000" points="606.521,-140.8776 610.0208,-150.8777 613.521,-140.8778 606.521,-140.8776"/>
</g>
<!-- AppComponent -->
<g id="node4" class="node">
<title>AppComponent</title>
<polygon fill="#ffffb3" stroke="#000000" points="2412.9399,-122 2307.0601,-122 2307.0601,-86 2412.9399,-86 2412.9399,-122"/>
<text text-anchor="middle" x="2360" y="-99.8" font-family="Times,serif" font-size="14.00" fill="#000000">AppComponent</text>
</g>
<!-- AppComponent&#45;&gt;AppModule -->
<g id="edge3" class="edge">
<title>AppComponent&#45;&gt;AppModule</title>
<path fill="none" stroke="#000000" d="M2360,-122.0225C2360,-139.3734 2360,-163 2360,-163 2360,-163 2875.3071,-163 2875.3071,-163"/>
<polygon fill="#000000" stroke="#000000" points="2875.3072,-166.5001 2885.3071,-163 2875.3071,-159.5001 2875.3072,-166.5001"/>
</g>
<!-- SecureNotesPage -->
<g id="node5" class="node">
<title>SecureNotesPage</title>
<polygon fill="#ffffb3" stroke="#000000" points="2034.9552,-122 1921.0448,-122 1921.0448,-86 2034.9552,-86 2034.9552,-122"/>
<text text-anchor="middle" x="1978" y="-99.8" font-family="Times,serif" font-size="14.00" fill="#000000">SecureNotesPage</text>
</g>
<!-- SecureNotesPage&#45;&gt;AppModule -->
<g id="edge4" class="edge">
<title>SecureNotesPage&#45;&gt;AppModule</title>
<path fill="none" stroke="#000000" d="M1996.9925,-122.2228C1996.9925,-142.3652 1996.9925,-172 1996.9925,-172 1996.9925,-172 2875.2328,-172 2875.2328,-172"/>
<polygon fill="#000000" stroke="#000000" points="2875.2328,-175.5001 2885.2328,-172 2875.2328,-168.5001 2875.2328,-175.5001"/>
</g>
<!-- SecureNotesPage&#45;&gt;SecureNotesPageModule -->
<g id="edge34" class="edge">
<title>SecureNotesPage&#45;&gt;SecureNotesPageModule</title>
<path fill="none" stroke="#000000" d="M1959.0075,-122.2434C1959.0075,-129.4297 1959.0075,-136 1959.0075,-136 1959.0075,-136 1047.2508,-136 1047.2508,-136 1047.2508,-136 1047.2508,-140.9551 1047.2508,-140.9551"/>
<polygon fill="#000000" stroke="#000000" points="1043.7509,-140.9551 1047.2508,-150.9551 1050.7509,-140.9552 1043.7509,-140.9551"/>
</g>
<!-- ItemEditorPage -->
<g id="node6" class="node">
<title>ItemEditorPage</title>
<polygon fill="#ffffb3" stroke="#000000" points="2156.8627,-122 2053.1373,-122 2053.1373,-86 2156.8627,-86 2156.8627,-122"/>
<text text-anchor="middle" x="2105" y="-99.8" font-family="Times,serif" font-size="14.00" fill="#000000">ItemEditorPage</text>
</g>
<!-- ItemEditorPage&#45;&gt;AppModule -->
<g id="edge6" class="edge">
<title>ItemEditorPage&#45;&gt;AppModule</title>
<path fill="none" stroke="#000000" d="M2122.3104,-122.1061C2122.3104,-141.3391 2122.3104,-169 2122.3104,-169 2122.3104,-169 2875.1505,-169 2875.1505,-169"/>
<polygon fill="#000000" stroke="#000000" points="2875.1506,-172.5001 2885.1505,-169 2875.1505,-165.5001 2875.1506,-172.5001"/>
</g>
<!-- ItemEditorPage&#45;&gt;EditPasswordPageModule -->
<g id="edge28" class="edge">
<title>ItemEditorPage&#45;&gt;EditPasswordPageModule</title>
<path fill="none" stroke="#000000" d="M2087.6896,-122.1944C2087.6896,-130.2782 2087.6896,-138 2087.6896,-138 2087.6896,-138 1233.2915,-138 1233.2915,-138 1233.2915,-138 1233.2915,-140.9672 1233.2915,-140.9672"/>
<polygon fill="#000000" stroke="#000000" points="1229.7916,-140.9671 1233.2915,-150.9672 1236.7916,-140.9672 1229.7916,-140.9671"/>
</g>
<!-- AuthenticatePage -->
<g id="node7" class="node">
<title>AuthenticatePage</title>
<polygon fill="#ffffb3" stroke="#000000" points="2289.2395,-122 2174.7605,-122 2174.7605,-86 2289.2395,-86 2289.2395,-122"/>
<text text-anchor="middle" x="2232" y="-99.8" font-family="Times,serif" font-size="14.00" fill="#000000">AuthenticatePage</text>
</g>
<!-- AuthenticatePage&#45;&gt;AppModule -->
<g id="edge7" class="edge">
<title>AuthenticatePage&#45;&gt;AppModule</title>
<path fill="none" stroke="#000000" d="M2251.1232,-122.2667C2251.1232,-140.5552 2251.1232,-166 2251.1232,-166 2251.1232,-166 2875.2309,-166 2875.2309,-166"/>
<polygon fill="#000000" stroke="#000000" points="2875.231,-169.5001 2885.2309,-166 2875.2309,-162.5001 2875.231,-169.5001"/>
</g>
<!-- AuthenticatePage&#45;&gt;AuthenticatePageModule -->
<g id="edge26" class="edge">
<title>AuthenticatePage&#45;&gt;AuthenticatePageModule</title>
<path fill="none" stroke="#000000" d="M2212.8768,-122.0511C2212.8768,-136.373 2212.8768,-154 2212.8768,-154 2212.8768,-154 1480.178,-154 1480.178,-154"/>
<polygon fill="#000000" stroke="#000000" points="1480.1781,-150.5001 1470.178,-154 1480.178,-157.5001 1480.1781,-150.5001"/>
</g>
<!-- NewKeychainPage -->
<g id="node8" class="node">
<title>NewKeychainPage</title>
<polygon fill="#ffffb3" stroke="#000000" points="1625.7809,-122 1502.2191,-122 1502.2191,-86 1625.7809,-86 1625.7809,-122"/>
<text text-anchor="middle" x="1564" y="-99.8" font-family="Times,serif" font-size="14.00" fill="#000000">NewKeychainPage</text>
</g>
<!-- NewKeychainPage&#45;&gt;AppModule -->
<g id="edge8" class="edge">
<title>NewKeychainPage&#45;&gt;AppModule</title>
<path fill="none" stroke="#000000" d="M1564,-122.2479C1564,-145.0179 1564,-181 1564,-181 1564,-181 2875.0895,-181 2875.0895,-181"/>
<polygon fill="#000000" stroke="#000000" points="2875.0895,-184.5001 2885.0895,-181 2875.0894,-177.5001 2875.0895,-184.5001"/>
</g>
<!-- NewKeychainPage&#45;&gt;NewKeychainPageModule -->
<g id="edge30" class="edge">
<title>NewKeychainPage&#45;&gt;NewKeychainPageModule</title>
<path fill="none" stroke="#000000" d="M1502.2164,-110C1273.3264,-110 486.8051,-110 486.8051,-110 486.8051,-110 486.8051,-140.9775 486.8051,-140.9775"/>
<polygon fill="#000000" stroke="#000000" points="483.3052,-140.9774 486.8051,-150.9775 490.3052,-140.9775 483.3052,-140.9774"/>
</g>
<!-- SettingsPage -->
<g id="node9" class="node">
<title>SettingsPage</title>
<polygon fill="#ffffb3" stroke="#000000" points="1732.326,-122 1643.674,-122 1643.674,-86 1732.326,-86 1732.326,-122"/>
<text text-anchor="middle" x="1688" y="-99.8" font-family="Times,serif" font-size="14.00" fill="#000000">SettingsPage</text>
</g>
<!-- SettingsPage&#45;&gt;AppModule -->
<g id="edge9" class="edge">
<title>SettingsPage&#45;&gt;AppModule</title>
<path fill="none" stroke="#000000" d="M1702.7209,-122.2921C1702.7209,-144.2057 1702.7209,-178 1702.7209,-178 1702.7209,-178 2875.2117,-178 2875.2117,-178"/>
<polygon fill="#000000" stroke="#000000" points="2875.2117,-181.5001 2885.2117,-178 2875.2117,-174.5001 2875.2117,-181.5001"/>
</g>
<!-- SettingsPage&#45;&gt;SettingsPageModule -->
<g id="edge36" class="edge">
<title>SettingsPage&#45;&gt;SettingsPageModule</title>
<path fill="none" stroke="#000000" d="M1673.2791,-122.0579C1673.2791,-126.4945 1673.2791,-130 1673.2791,-130 1673.2791,-130 653.9792,-130 653.9792,-130 653.9792,-130 653.9792,-140.8701 653.9792,-140.8701"/>
<polygon fill="#000000" stroke="#000000" points="650.4793,-140.8701 653.9792,-150.8701 657.4793,-140.8701 650.4793,-140.8701"/>
</g>
<!-- PasswordGeneratorPage -->
<g id="node10" class="node">
<title>PasswordGeneratorPage</title>
<polygon fill="#ffffb3" stroke="#000000" points="1903.3277,-122 1750.6723,-122 1750.6723,-86 1903.3277,-86 1903.3277,-122"/>
<text text-anchor="middle" x="1827" y="-99.8" font-family="Times,serif" font-size="14.00" fill="#000000">PasswordGeneratorPage</text>
</g>
<!-- PasswordGeneratorPage&#45;&gt;AppModule -->
<g id="edge10" class="edge">
<title>PasswordGeneratorPage&#45;&gt;AppModule</title>
<path fill="none" stroke="#000000" d="M1852.4713,-122.2843C1852.4713,-143.3211 1852.4713,-175 1852.4713,-175 1852.4713,-175 2875.207,-175 2875.207,-175"/>
<polygon fill="#000000" stroke="#000000" points="2875.207,-178.5001 2885.207,-175 2875.207,-171.5001 2875.207,-178.5001"/>
</g>
<!-- PasswordGeneratorPage&#45;&gt;PasswordGeneratorPageModule -->
<g id="edge32" class="edge">
<title>PasswordGeneratorPage&#45;&gt;PasswordGeneratorPageModule</title>
<path fill="none" stroke="#000000" d="M1801.5287,-122.2015C1801.5287,-128.028 1801.5287,-133 1801.5287,-133 1801.5287,-133 852.7296,-133 852.7296,-133 852.7296,-133 852.7296,-140.5782 852.7296,-140.5782"/>
<polygon fill="#000000" stroke="#000000" points="849.2297,-140.5781 852.7296,-150.5782 856.2297,-140.5782 849.2297,-140.5781"/>
</g>
<!-- IonicApp  -->
<g id="node18" class="node">
<title>IonicApp </title>
<polygon fill="#80b1d3" stroke="#000000" points="2963.3734,-252 2890.6266,-252 2890.6266,-216 2963.3734,-216 2963.3734,-252"/>
<text text-anchor="middle" x="2927" y="-229.8" font-family="Times,serif" font-size="14.00" fill="#000000">IonicApp </text>
</g>
<!-- AppModule&#45;&gt;IonicApp  -->
<g id="edge17" class="edge">
<title>AppModule&#45;&gt;IonicApp </title>
<path fill="none" stroke="#000000" stroke-dasharray="1,5" d="M2927,-187.1061C2927,-187.1061 2927,-205.991 2927,-205.991"/>
<polygon fill="#000000" stroke="#000000" points="2923.5001,-205.9909 2927,-215.991 2930.5001,-205.991 2923.5001,-205.9909"/>
</g>
<!-- BrowserModule -->
<g id="node12" class="node">
<title>BrowserModule</title>
<polygon fill="#8dd3c7" stroke="#000000" points="4483.4734,-122 4480.4734,-126 4459.4734,-126 4456.4734,-122 4376.5266,-122 4376.5266,-86 4483.4734,-86 4483.4734,-122"/>
<text text-anchor="middle" x="4430" y="-99.8" font-family="Times,serif" font-size="14.00" fill="#000000">BrowserModule</text>
</g>
<!-- BrowserModule&#45;&gt;AppModule -->
<g id="edge11" class="edge">
<title>BrowserModule&#45;&gt;AppModule</title>
<path fill="none" stroke="#000000" d="M4430,-122.308C4430,-142.1455 4430,-171 4430,-171 4430,-171 2978.7675,-171 2978.7675,-171"/>
<polygon fill="#000000" stroke="#000000" points="2978.7675,-167.5001 2968.7675,-171 2978.7675,-174.5001 2978.7675,-167.5001"/>
</g>
<!-- IonicStorageModule.forRoot(args) -->
<g id="node13" class="node">
<title>IonicStorageModule.forRoot(args)</title>
<polygon fill="#8dd3c7" stroke="#000000" points="4358.2681,-122 4355.2681,-126 4334.2681,-126 4331.2681,-122 4147.7319,-122 4147.7319,-86 4358.2681,-86 4358.2681,-122"/>
<text text-anchor="middle" x="4253" y="-99.8" font-family="Times,serif" font-size="14.00" fill="#000000">IonicStorageModule.forRoot(args)</text>
</g>
<!-- IonicStorageModule.forRoot(args)&#45;&gt;AppModule -->
<g id="edge12" class="edge">
<title>IonicStorageModule.forRoot(args)&#45;&gt;AppModule</title>
<path fill="none" stroke="#000000" d="M4253,-122.1686C4253,-141.0898 4253,-168 4253,-168 4253,-168 2978.8746,-168 2978.8746,-168"/>
<polygon fill="#000000" stroke="#000000" points="2978.8746,-164.5001 2968.8746,-168 2978.8746,-171.5001 2978.8746,-164.5001"/>
</g>
<!-- NgCircleProgressModule.forRoot(args) -->
<g id="node14" class="node">
<title>NgCircleProgressModule.forRoot(args)</title>
<polygon fill="#8dd3c7" stroke="#000000" points="5271.2611,-122 5268.2611,-126 5247.2611,-126 5244.2611,-122 5032.7389,-122 5032.7389,-86 5271.2611,-86 5271.2611,-122"/>
<text text-anchor="middle" x="5152" y="-99.8" font-family="Times,serif" font-size="14.00" fill="#000000">NgCircleProgressModule.forRoot(args)</text>
</g>
<!-- NgCircleProgressModule.forRoot(args)&#45;&gt;AppModule -->
<g id="edge13" class="edge">
<title>NgCircleProgressModule.forRoot(args)&#45;&gt;AppModule</title>
<path fill="none" stroke="#000000" d="M5152,-122.1532C5152,-145.7566 5152,-184 5152,-184 5152,-184 2978.971,-184 2978.971,-184"/>
<polygon fill="#000000" stroke="#000000" points="2978.971,-180.5001 2968.971,-184 2978.971,-187.5001 2978.971,-180.5001"/>
</g>
<!-- IonicModule.forRoot(args) -->
<g id="node15" class="node">
<title>IonicModule.forRoot(args)</title>
<polygon fill="#8dd3c7" stroke="#000000" points="5015.005,-122 5012.005,-126 4991.005,-126 4988.005,-122 4846.995,-122 4846.995,-86 5015.005,-86 5015.005,-122"/>
<text text-anchor="middle" x="4931" y="-99.8" font-family="Times,serif" font-size="14.00" fill="#000000">IonicModule.forRoot(args)</text>
</g>
<!-- IonicModule.forRoot(args)&#45;&gt;AppModule -->
<g id="edge14" class="edge">
<title>IonicModule.forRoot(args)&#45;&gt;AppModule</title>
<path fill="none" stroke="#000000" d="M4931,-122.2479C4931,-145.0179 4931,-181 4931,-181 4931,-181 2978.8564,-181 2978.8564,-181"/>
<polygon fill="#000000" stroke="#000000" points="2978.8564,-177.5001 2968.8564,-181 2978.8564,-184.5001 2978.8564,-177.5001"/>
</g>
<!-- HttpClientModule -->
<g id="node16" class="node">
<title>HttpClientModule</title>
<polygon fill="#8dd3c7" stroke="#000000" points="4829.1611,-122 4826.1611,-126 4805.1611,-126 4802.1611,-122 4710.8389,-122 4710.8389,-86 4829.1611,-86 4829.1611,-122"/>
<text text-anchor="middle" x="4770" y="-99.8" font-family="Times,serif" font-size="14.00" fill="#000000">HttpClientModule</text>
</g>
<!-- HttpClientModule&#45;&gt;AppModule -->
<g id="edge15" class="edge">
<title>HttpClientModule&#45;&gt;AppModule</title>
<path fill="none" stroke="#000000" d="M4770,-122.2921C4770,-144.2057 4770,-178 4770,-178 4770,-178 2978.9564,-178 2978.9564,-178"/>
<polygon fill="#000000" stroke="#000000" points="2978.9564,-174.5001 2968.9564,-178 2978.9564,-181.5001 2978.9564,-174.5001"/>
</g>
<!-- TranslateModule.forRoot(args) -->
<g id="node17" class="node">
<title>TranslateModule.forRoot(args)</title>
<polygon fill="#8dd3c7" stroke="#000000" points="4692.8223,-122 4689.8223,-126 4668.8223,-126 4665.8223,-122 4501.1777,-122 4501.1777,-86 4692.8223,-86 4692.8223,-122"/>
<text text-anchor="middle" x="4597" y="-99.8" font-family="Times,serif" font-size="14.00" fill="#000000">TranslateModule.forRoot(args)</text>
</g>
<!-- TranslateModule.forRoot(args)&#45;&gt;AppModule -->
<g id="edge16" class="edge">
<title>TranslateModule.forRoot(args)&#45;&gt;AppModule</title>
<path fill="none" stroke="#000000" d="M4597,-122.0267C4597,-142.7672 4597,-174 4597,-174 4597,-174 2978.6978,-174 2978.6978,-174"/>
<polygon fill="#000000" stroke="#000000" points="2978.6978,-170.5001 2968.6978,-174 2978.6977,-177.5001 2978.6978,-170.5001"/>
</g>
<!-- StatusBar -->
<g id="node19" class="node">
<title>StatusBar</title>
<ellipse fill="#fdb462" stroke="#000000" cx="2637" cy="-104" rx="48.6694" ry="18"/>
<text text-anchor="middle" x="2637" y="-99.8" font-family="Times,serif" font-size="14.00" fill="#000000">StatusBar</text>
</g>
<!-- StatusBar&#45;&gt;AppModule -->
<g id="edge18" class="edge">
<title>StatusBar&#45;&gt;AppModule</title>
<path fill="none" stroke="#000000" d="M2637,-122.2396C2637,-137.5706 2637,-157 2637,-157 2637,-157 2875.1412,-157 2875.1412,-157"/>
<polygon fill="#000000" stroke="#000000" points="2875.1413,-160.5001 2885.1412,-157 2875.1412,-153.5001 2875.1413,-160.5001"/>
</g>
<!-- SecureStorage -->
<g id="node20" class="node">
<title>SecureStorage</title>
<ellipse fill="#fdb462" stroke="#000000" cx="2504" cy="-104" rx="66.6113" ry="18"/>
<text text-anchor="middle" x="2504" y="-99.8" font-family="Times,serif" font-size="14.00" fill="#000000">SecureStorage</text>
</g>
<!-- SecureStorage&#45;&gt;AppModule -->
<g id="edge19" class="edge">
<title>SecureStorage&#45;&gt;AppModule</title>
<path fill="none" stroke="#000000" d="M2504,-122.027C2504,-138.3976 2504,-160 2504,-160 2504,-160 2875.2835,-160 2875.2835,-160"/>
<polygon fill="#000000" stroke="#000000" points="2875.2835,-163.5001 2885.2835,-160 2875.2834,-156.5001 2875.2835,-163.5001"/>
</g>
<!-- SplashScreen -->
<g id="node21" class="node">
<title>SplashScreen</title>
<ellipse fill="#fdb462" stroke="#000000" cx="4061" cy="-104" rx="63.1189" ry="18"/>
<text text-anchor="middle" x="4061" y="-99.8" font-family="Times,serif" font-size="14.00" fill="#000000">SplashScreen</text>
</g>
<!-- SplashScreen&#45;&gt;AppModule -->
<g id="edge20" class="edge">
<title>SplashScreen&#45;&gt;AppModule</title>
<path fill="none" stroke="#000000" d="M4061,-122.302C4061,-140.2699 4061,-165 4061,-165 4061,-165 2978.7045,-165 2978.7045,-165"/>
<polygon fill="#000000" stroke="#000000" points="2978.7046,-161.5001 2968.7045,-165 2978.7045,-168.5001 2978.7046,-161.5001"/>
</g>
<!-- { provide: ErrorHandler, useClass: IonicErrorHandler } -->
<g id="node22" class="node">
<title>{ provide: ErrorHandler, useClass: IonicErrorHandler }</title>
<ellipse fill="#fdb462" stroke="#000000" cx="3754" cy="-104" rx="226.4736" ry="18"/>
<text text-anchor="middle" x="3754" y="-99.8" font-family="Times,serif" font-size="14.00" fill="#000000">{ provide: ErrorHandler, useClass: IonicErrorHandler }</text>
</g>
<!-- { provide: ErrorHandler, useClass: IonicErrorHandler }&#45;&gt;AppModule -->
<g id="edge21" class="edge">
<title>{ provide: ErrorHandler, useClass: IonicErrorHandler }&#45;&gt;AppModule</title>
<path fill="none" stroke="#000000" d="M3754,-122.0352C3754,-138.7344 3754,-161 3754,-161 3754,-161 2978.8625,-161 2978.8625,-161"/>
<polygon fill="#000000" stroke="#000000" points="2978.8625,-157.5001 2968.8625,-161 2978.8624,-164.5001 2978.8625,-157.5001"/>
</g>
<!-- KeychainProvider -->
<g id="node23" class="node">
<title>KeychainProvider</title>
<ellipse fill="#fdb462" stroke="#000000" cx="3428" cy="-104" rx="81.0821" ry="18"/>
<text text-anchor="middle" x="3428" y="-99.8" font-family="Times,serif" font-size="14.00" fill="#000000">KeychainProvider</text>
</g>
<!-- KeychainProvider&#45;&gt;AppModule -->
<g id="edge22" class="edge">
<title>KeychainProvider&#45;&gt;AppModule</title>
<path fill="none" stroke="#000000" d="M3428,-122.2819C3428,-137.9478 3428,-158 3428,-158 3428,-158 2978.8533,-158 2978.8533,-158"/>
<polygon fill="#000000" stroke="#000000" points="2978.8533,-154.5001 2968.8533,-158 2978.8532,-161.5001 2978.8533,-154.5001"/>
</g>
<!-- LocalizedToastProvider -->
<g id="node24" class="node">
<title>LocalizedToastProvider</title>
<ellipse fill="#fdb462" stroke="#000000" cx="3225" cy="-104" rx="103.6296" ry="18"/>
<text text-anchor="middle" x="3225" y="-99.8" font-family="Times,serif" font-size="14.00" fill="#000000">LocalizedToastProvider</text>
</g>
<!-- LocalizedToastProvider&#45;&gt;AppModule -->
<g id="edge23" class="edge">
<title>LocalizedToastProvider&#45;&gt;AppModule</title>
<path fill="none" stroke="#000000" d="M3225,-122.1243C3225,-136.7832 3225,-155 3225,-155 3225,-155 2978.7494,-155 2978.7494,-155"/>
<polygon fill="#000000" stroke="#000000" points="2978.7494,-151.5001 2968.7494,-155 2978.7494,-158.5001 2978.7494,-151.5001"/>
</g>
<!-- CryptoProvider -->
<g id="node25" class="node">
<title>CryptoProvider</title>
<ellipse fill="#fdb462" stroke="#000000" cx="3032" cy="-104" rx="71.2288" ry="18"/>
<text text-anchor="middle" x="3032" y="-99.8" font-family="Times,serif" font-size="14.00" fill="#000000">CryptoProvider</text>
</g>
<!-- CryptoProvider&#45;&gt;AppModule -->
<g id="edge24" class="edge">
<title>CryptoProvider&#45;&gt;AppModule</title>
<path fill="none" stroke="#000000" d="M2964.857,-109.9985C2964.857,-109.9985 2964.857,-140.7642 2964.857,-140.7642"/>
<polygon fill="#000000" stroke="#000000" points="2961.3571,-140.7642 2964.857,-150.7642 2968.3571,-140.7642 2961.3571,-140.7642"/>
</g>
<!-- PasswordGeneratorProvider -->
<g id="node26" class="node">
<title>PasswordGeneratorProvider</title>
<ellipse fill="#fdb462" stroke="#000000" cx="2823" cy="-104" rx="119.8024" ry="18"/>
<text text-anchor="middle" x="2823" y="-99.8" font-family="Times,serif" font-size="14.00" fill="#000000">PasswordGeneratorProvider</text>
</g>
<!-- PasswordGeneratorProvider&#45;&gt;AppModule -->
<g id="edge25" class="edge">
<title>PasswordGeneratorProvider&#45;&gt;AppModule</title>
<path fill="none" stroke="#000000" d="M2914.0365,-115.922C2914.0365,-115.922 2914.0365,-140.7669 2914.0365,-140.7669"/>
<polygon fill="#000000" stroke="#000000" points="2910.5366,-140.7669 2914.0365,-150.7669 2917.5366,-140.7669 2910.5366,-140.7669"/>
</g>
</g>
</svg>
