<?xml version="1.0" encoding="UTF-8" standalone="no"?>
<!DOCTYPE svg PUBLIC "-//W3C//DTD SVG 1.1//EN"
 "http://www.w3.org/Graphics/SVG/1.1/DTD/svg11.dtd">
<!-- Generated by graphviz version 2.40.1 (20161225.0304)
 -->
<!-- Title: dependencies Pages: 1 -->
<svg width="504pt" height="211pt"
 viewBox="0.00 0.00 504.00 211.00" xmlns="http://www.w3.org/2000/svg" xmlns:xlink="http://www.w3.org/1999/xlink">
<g id="graph0" class="graph" transform="scale(1 1) rotate(0) translate(4 207)">
<title>dependencies</title>
<polygon fill="#ffffff" stroke="transparent" points="-4,4 -4,-207 500,-207 500,4 -4,4"/>
<text text-anchor="start" x="227.0091" y="-42.4" font-family="sans-serif" font-weight="bold" font-size="14.00" fill="#000000">Legend</text>
<polygon fill="#ffffb3" stroke="transparent" points="14,-10 14,-30 34,-30 34,-10 14,-10"/>
<text text-anchor="start" x="37.629" y="-15.4" font-family="sans-serif" font-size="14.00" fill="#000000"> &#160;Declarations</text>
<polygon fill="#8dd3c7" stroke="transparent" points="127,-10 127,-30 147,-30 147,-10 127,-10"/>
<text text-anchor="start" x="150.7251" y="-15.4" font-family="sans-serif" font-size="14.00" fill="#000000"> &#160;Module</text>
<polygon fill="#80b1d3" stroke="transparent" points="213,-10 213,-30 233,-30 233,-10 213,-10"/>
<text text-anchor="start" x="236.7812" y="-15.4" font-family="sans-serif" font-size="14.00" fill="#000000"> &#160;Bootstrap</text>
<polygon fill="#fdb462" stroke="transparent" points="310,-10 310,-30 330,-30 330,-10 310,-10"/>
<text text-anchor="start" x="333.6732" y="-15.4" font-family="sans-serif" font-size="14.00" fill="#000000"> &#160;Providers</text>
<polygon fill="#fb8072" stroke="transparent" points="406,-10 406,-30 426,-30 426,-10 406,-10"/>
<text text-anchor="start" x="429.7258" y="-15.4" font-family="sans-serif" font-size="14.00" fill="#000000"> &#160;Exports</text>
<g id="clust1" class="cluster">
<title>cluster_AccountsPageModule</title>
<polygon fill="none" stroke="#000000" stroke-dasharray="1,5" points="72,-70 72,-195 424,-195 424,-70 72,-70"/>
</g>
<g id="clust2" class="cluster">
<title>cluster_AccountsPageModule_declarations</title>
<polygon fill="none" stroke="#000000" points="304,-78 304,-130 416,-130 416,-78 304,-78"/>
</g>
<g id="clust4" class="cluster">
<title>cluster_AccountsPageModule_imports</title>
<polygon fill="none" stroke="#000000" points="80,-78 80,-130 296,-130 296,-78 80,-78"/>
</g>
<!-- AccountsPage -->
<g id="node1" class="node">
<title>AccountsPage</title>
<polygon fill="#ffffb3" stroke="#000000" points="408.0828,-122 311.9172,-122 311.9172,-86 408.0828,-86 408.0828,-122"/>
<text text-anchor="middle" x="360" y="-99.8" font-family="Times,serif" font-size="14.00" fill="#000000">AccountsPage</text>
</g>
<!-- AccountsPageModule -->
<g id="node2" class="node">
<title>AccountsPageModule</title>
<polygon fill="#8dd3c7" stroke="#000000" points="336.6331,-187 333.6331,-191 312.6331,-191 309.6331,-187 197.3669,-187 197.3669,-151 336.6331,-151 336.6331,-187"/>
<text text-anchor="middle" x="267" y="-164.8" font-family="Times,serif" font-size="14.00" fill="#000000">AccountsPageModule</text>
</g>
<!-- AccountsPage&#45;&gt;AccountsPageModule -->
<g id="edge1" class="edge">
<title>AccountsPage&#45;&gt;AccountsPageModule</title>
<path fill="none" stroke="#000000" d="M324.3875,-122.1061C324.3875,-122.1061 324.3875,-140.991 324.3875,-140.991"/>
<polygon fill="#000000" stroke="#000000" points="320.8875,-140.9909 324.3875,-150.991 327.8875,-140.991 320.8875,-140.9909"/>
</g>
<!-- IonicPageModule.forChild(args) -->
<g id="node3" class="node">
<title>IonicPageModule.forChild(args)</title>
<polygon fill="#8dd3c7" stroke="#000000" points="287.6074,-122 284.6074,-126 263.6074,-126 260.6074,-122 88.3926,-122 88.3926,-86 287.6074,-86 287.6074,-122"/>
<text text-anchor="middle" x="188" y="-99.8" font-family="Times,serif" font-size="14.00" fill="#000000">IonicPageModule.forChild(args)</text>
</g>
<!-- IonicPageModule.forChild(args)&#45;&gt;AccountsPageModule -->
<g id="edge2" class="edge">
<title>IonicPageModule.forChild(args)&#45;&gt;AccountsPageModule</title>
<path fill="none" stroke="#000000" d="M242.3687,-122.1061C242.3687,-122.1061 242.3687,-140.991 242.3687,-140.991"/>
<polygon fill="#000000" stroke="#000000" points="238.8688,-140.9909 242.3687,-150.991 245.8688,-140.991 238.8688,-140.9909"/>
</g>
</g>
</svg>
