<?xml version="1.0" encoding="UTF-8" standalone="no"?>
<!DOCTYPE svg PUBLIC "-//W3C//DTD SVG 1.1//EN"
 "http://www.w3.org/Graphics/SVG/1.1/DTD/svg11.dtd">
<!-- Generated by graphviz version 2.40.1 (20161225.0304)
 -->
<!-- Title: dependencies Pages: 1 -->
<svg width="3941pt" height="284pt"
 viewBox="0.00 0.00 3941.00 284.00" xmlns="http://www.w3.org/2000/svg" xmlns:xlink="http://www.w3.org/1999/xlink">
<g id="graph0" class="graph" transform="scale(1 1) rotate(0) translate(4 280)">
<title>dependencies</title>
<polygon fill="#ffffff" stroke="transparent" points="-4,4 -4,-280 3937,-280 3937,4 -4,4"/>
<text text-anchor="start" x="1945.5091" y="-42.4" font-family="sans-serif" font-weight="bold" font-size="14.00" fill="#000000">Legend</text>
<polygon fill="#ffffb3" stroke="transparent" points="1732.5,-10 1732.5,-30 1752.5,-30 1752.5,-10 1732.5,-10"/>
<text text-anchor="start" x="1756.129" y="-15.4" font-family="sans-serif" font-size="14.00" fill="#000000"> &#160;Declarations</text>
<polygon fill="#8dd3c7" stroke="transparent" points="1845.5,-10 1845.5,-30 1865.5,-30 1865.5,-10 1845.5,-10"/>
<text text-anchor="start" x="1869.2251" y="-15.4" font-family="sans-serif" font-size="14.00" fill="#000000"> &#160;Module</text>
<polygon fill="#80b1d3" stroke="transparent" points="1931.5,-10 1931.5,-30 1951.5,-30 1951.5,-10 1931.5,-10"/>
<text text-anchor="start" x="1955.2812" y="-15.4" font-family="sans-serif" font-size="14.00" fill="#000000"> &#160;Bootstrap</text>
<polygon fill="#fdb462" stroke="transparent" points="2028.5,-10 2028.5,-30 2048.5,-30 2048.5,-10 2028.5,-10"/>
<text text-anchor="start" x="2052.1732" y="-15.4" font-family="sans-serif" font-size="14.00" fill="#000000"> &#160;Providers</text>
<polygon fill="#fb8072" stroke="transparent" points="2124.5,-10 2124.5,-30 2144.5,-30 2144.5,-10 2124.5,-10"/>
<text text-anchor="start" x="2148.2258" y="-15.4" font-family="sans-serif" font-size="14.00" fill="#000000"> &#160;Exports</text>
<g id="clust1" class="cluster">
<title>cluster_AppModule</title>
<polygon fill="none" stroke="#000000" stroke-dasharray="1,5" points="8,-70 8,-268 3925,-268 3925,-70 8,-70"/>
</g>
<g id="clust2" class="cluster">
<title>cluster_AppModule_declarations</title>
<polygon fill="none" stroke="#000000" points="2876,-78 2876,-130 3917,-130 3917,-78 2876,-78"/>
</g>
<g id="clust11" class="cluster">
<title>cluster_AppModule_imports</title>
<polygon fill="none" stroke="#000000" points="1728,-78 1728,-130 2868,-130 2868,-78 1728,-78"/>
</g>
<g id="clust13" class="cluster">
<title>cluster_AppModule_bootstrap</title>
<polygon fill="none" stroke="#000000" points="2232,-208 2232,-260 2320,-260 2320,-208 2232,-208"/>
</g>
<g id="clust14" class="cluster">
<title>cluster_AppModule_providers</title>
<polygon fill="none" stroke="#000000" points="16,-78 16,-130 1720,-130 1720,-78 16,-78"/>
</g>
<!-- AppComponent -->
<g id="node1" class="node">
<title>AppComponent</title>
<polygon fill="#ffffb3" stroke="#000000" points="3908.9399,-122 3803.0601,-122 3803.0601,-86 3908.9399,-86 3908.9399,-122"/>
<text text-anchor="middle" x="3856" y="-99.8" font-family="Times,serif" font-size="14.00" fill="#000000">AppComponent</text>
</g>
<!-- AppModule -->
<g id="node9" class="node">
<title>AppModule</title>
<polygon fill="#8dd3c7" stroke="#000000" points="2317.6571,-187 2314.6571,-191 2293.6571,-191 2290.6571,-187 2234.3429,-187 2234.3429,-151 2317.6571,-151 2317.6571,-187"/>
<text text-anchor="middle" x="2276" y="-164.8" font-family="Times,serif" font-size="14.00" fill="#000000">AppModule</text>
</g>
<!-- AppComponent&#45;&gt;AppModule -->
<g id="edge1" class="edge">
<title>AppComponent&#45;&gt;AppModule</title>
<path fill="none" stroke="#000000" d="M3856,-122.1532C3856,-145.7566 3856,-184 3856,-184 3856,-184 2327.8542,-184 2327.8542,-184"/>
<polygon fill="#000000" stroke="#000000" points="2327.8542,-180.5001 2317.8542,-184 2327.8542,-187.5001 2327.8542,-180.5001"/>
</g>
<!-- SecureNotesPage -->
<g id="node2" class="node">
<title>SecureNotesPage</title>
<polygon fill="#ffffb3" stroke="#000000" points="3784.9552,-122 3671.0448,-122 3671.0448,-86 3784.9552,-86 3784.9552,-122"/>
<text text-anchor="middle" x="3728" y="-99.8" font-family="Times,serif" font-size="14.00" fill="#000000">SecureNotesPage</text>
</g>
<!-- SecureNotesPage&#45;&gt;AppModule -->
<g id="edge2" class="edge">
<title>SecureNotesPage&#45;&gt;AppModule</title>
<path fill="none" stroke="#000000" d="M3728,-122.2479C3728,-145.0179 3728,-181 3728,-181 3728,-181 2327.8896,-181 2327.8896,-181"/>
<polygon fill="#000000" stroke="#000000" points="2327.8897,-177.5001 2317.8896,-181 2327.8896,-184.5001 2327.8897,-177.5001"/>
</g>
<!-- AccountsPage -->
<g id="node3" class="node">
<title>AccountsPage</title>
<polygon fill="#ffffb3" stroke="#000000" points="3653.0828,-122 3556.9172,-122 3556.9172,-86 3653.0828,-86 3653.0828,-122"/>
<text text-anchor="middle" x="3605" y="-99.8" font-family="Times,serif" font-size="14.00" fill="#000000">AccountsPage</text>
</g>
<!-- AccountsPage&#45;&gt;AppModule -->
<g id="edge3" class="edge">
<title>AccountsPage&#45;&gt;AppModule</title>
<path fill="none" stroke="#000000" d="M3605,-122.2921C3605,-144.2057 3605,-178 3605,-178 3605,-178 2327.9693,-178 2327.9693,-178"/>
<polygon fill="#000000" stroke="#000000" points="2327.9694,-174.5001 2317.9693,-178 2327.9693,-181.5001 2327.9694,-174.5001"/>
</g>
<!-- ItemEditorPage -->
<g id="node4" class="node">
<title>ItemEditorPage</title>
<polygon fill="#ffffb3" stroke="#000000" points="3538.8627,-122 3435.1373,-122 3435.1373,-86 3538.8627,-86 3538.8627,-122"/>
<text text-anchor="middle" x="3487" y="-99.8" font-family="Times,serif" font-size="14.00" fill="#000000">ItemEditorPage</text>
</g>
<!-- ItemEditorPage&#45;&gt;AppModule -->
<g id="edge4" class="edge">
<title>ItemEditorPage&#45;&gt;AppModule</title>
<path fill="none" stroke="#000000" d="M3487,-122.0267C3487,-142.7672 3487,-174 3487,-174 3487,-174 2327.6854,-174 2327.6854,-174"/>
<polygon fill="#000000" stroke="#000000" points="2327.6854,-170.5001 2317.6854,-174 2327.6853,-177.5001 2327.6854,-170.5001"/>
</g>
<!-- AuthenticatePage -->
<g id="node5" class="node">
<title>AuthenticatePage</title>
<polygon fill="#ffffb3" stroke="#000000" points="3417.2395,-122 3302.7605,-122 3302.7605,-86 3417.2395,-86 3417.2395,-122"/>
<text text-anchor="middle" x="3360" y="-99.8" font-family="Times,serif" font-size="14.00" fill="#000000">AuthenticatePage</text>
</g>
<!-- AuthenticatePage&#45;&gt;AppModule -->
<g id="edge5" class="edge">
<title>AuthenticatePage&#45;&gt;AppModule</title>
<path fill="none" stroke="#000000" d="M3360,-122.308C3360,-142.1455 3360,-171 3360,-171 3360,-171 2327.8299,-171 2327.8299,-171"/>
<polygon fill="#000000" stroke="#000000" points="2327.8299,-167.5001 2317.8299,-171 2327.8298,-174.5001 2327.8299,-167.5001"/>
</g>
<!-- NewKeychainPage -->
<g id="node6" class="node">
<title>NewKeychainPage</title>
<polygon fill="#ffffb3" stroke="#000000" points="3284.7809,-122 3161.2191,-122 3161.2191,-86 3284.7809,-86 3284.7809,-122"/>
<text text-anchor="middle" x="3223" y="-99.8" font-family="Times,serif" font-size="14.00" fill="#000000">NewKeychainPage</text>
</g>
<!-- NewKeychainPage&#45;&gt;AppModule -->
<g id="edge6" class="edge">
<title>NewKeychainPage&#45;&gt;AppModule</title>
<path fill="none" stroke="#000000" d="M3223,-122.1686C3223,-141.0898 3223,-168 3223,-168 3223,-168 2327.9133,-168 2327.9133,-168"/>
<polygon fill="#000000" stroke="#000000" points="2327.9134,-164.5001 2317.9133,-168 2327.9133,-171.5001 2327.9134,-164.5001"/>
</g>
<!-- SettingsPage -->
<g id="node7" class="node">
<title>SettingsPage</title>
<polygon fill="#ffffb3" stroke="#000000" points="3143.326,-122 3054.674,-122 3054.674,-86 3143.326,-86 3143.326,-122"/>
<text text-anchor="middle" x="3099" y="-99.8" font-family="Times,serif" font-size="14.00" fill="#000000">SettingsPage</text>
</g>
<!-- SettingsPage&#45;&gt;AppModule -->
<g id="edge7" class="edge">
<title>SettingsPage&#45;&gt;AppModule</title>
<path fill="none" stroke="#000000" d="M3099,-122.302C3099,-140.2699 3099,-165 3099,-165 3099,-165 2327.66,-165 2327.66,-165"/>
<polygon fill="#000000" stroke="#000000" points="2327.66,-161.5001 2317.66,-165 2327.66,-168.5001 2327.66,-161.5001"/>
</g>
<!-- PasswordGeneratorPage -->
<g id="node8" class="node">
<title>PasswordGeneratorPage</title>
<polygon fill="#ffffb3" stroke="#000000" points="3036.3277,-122 2883.6723,-122 2883.6723,-86 3036.3277,-86 3036.3277,-122"/>
<text text-anchor="middle" x="2960" y="-99.8" font-family="Times,serif" font-size="14.00" fill="#000000">PasswordGeneratorPage</text>
</g>
<!-- PasswordGeneratorPage&#45;&gt;AppModule -->
<g id="edge8" class="edge">
<title>PasswordGeneratorPage&#45;&gt;AppModule</title>
<path fill="none" stroke="#000000" d="M2960,-122.0352C2960,-138.7344 2960,-161 2960,-161 2960,-161 2327.7576,-161 2327.7576,-161"/>
<polygon fill="#000000" stroke="#000000" points="2327.7577,-157.5001 2317.7576,-161 2327.7576,-164.5001 2327.7577,-157.5001"/>
</g>
<!-- IonicApp  -->
<g id="node16" class="node">
<title>IonicApp </title>
<polygon fill="#80b1d3" stroke="#000000" points="2312.3734,-252 2239.6266,-252 2239.6266,-216 2312.3734,-216 2312.3734,-252"/>
<text text-anchor="middle" x="2276" y="-229.8" font-family="Times,serif" font-size="14.00" fill="#000000">IonicApp </text>
</g>
<!-- AppModule&#45;&gt;IonicApp  -->
<g id="edge15" class="edge">
<title>AppModule&#45;&gt;IonicApp </title>
<path fill="none" stroke="#000000" stroke-dasharray="1,5" d="M2276,-187.1061C2276,-187.1061 2276,-205.991 2276,-205.991"/>
<polygon fill="#000000" stroke="#000000" points="2272.5001,-205.9909 2276,-215.991 2279.5001,-205.991 2272.5001,-205.9909"/>
</g>
<!-- BrowserModule -->
<g id="node10" class="node">
<title>BrowserModule</title>
<polygon fill="#8dd3c7" stroke="#000000" points="2860.4734,-122 2857.4734,-126 2836.4734,-126 2833.4734,-122 2753.5266,-122 2753.5266,-86 2860.4734,-86 2860.4734,-122"/>
<text text-anchor="middle" x="2807" y="-99.8" font-family="Times,serif" font-size="14.00" fill="#000000">BrowserModule</text>
</g>
<!-- BrowserModule&#45;&gt;AppModule -->
<g id="edge9" class="edge">
<title>BrowserModule&#45;&gt;AppModule</title>
<path fill="none" stroke="#000000" d="M2807,-122.2819C2807,-137.9478 2807,-158 2807,-158 2807,-158 2327.6667,-158 2327.6667,-158"/>
<polygon fill="#000000" stroke="#000000" points="2327.6667,-154.5001 2317.6667,-158 2327.6666,-161.5001 2327.6667,-154.5001"/>
</g>
<!-- IonicStorageModule.forRoot(args) -->
<g id="node11" class="node">
<title>IonicStorageModule.forRoot(args)</title>
<polygon fill="#8dd3c7" stroke="#000000" points="2735.2681,-122 2732.2681,-126 2711.2681,-126 2708.2681,-122 2524.7319,-122 2524.7319,-86 2735.2681,-86 2735.2681,-122"/>
<text text-anchor="middle" x="2630" y="-99.8" font-family="Times,serif" font-size="14.00" fill="#000000">IonicStorageModule.forRoot(args)</text>
</g>
<!-- IonicStorageModule.forRoot(args)&#45;&gt;AppModule -->
<g id="edge10" class="edge">
<title>IonicStorageModule.forRoot(args)&#45;&gt;AppModule</title>
<path fill="none" stroke="#000000" d="M2630,-122.1243C2630,-136.7832 2630,-155 2630,-155 2630,-155 2327.9986,-155 2327.9986,-155"/>
<polygon fill="#000000" stroke="#000000" points="2327.9986,-151.5001 2317.9986,-155 2327.9985,-158.5001 2327.9986,-151.5001"/>
</g>
<!-- NgCircleProgressModule.forRoot(args) -->
<g id="node12" class="node">
<title>NgCircleProgressModule.forRoot(args)</title>
<polygon fill="#8dd3c7" stroke="#000000" points="2506.2611,-122 2503.2611,-126 2482.2611,-126 2479.2611,-122 2267.7389,-122 2267.7389,-86 2506.2611,-86 2506.2611,-122"/>
<text text-anchor="middle" x="2387" y="-99.8" font-family="Times,serif" font-size="14.00" fill="#000000">NgCircleProgressModule.forRoot(args)</text>
</g>
<!-- NgCircleProgressModule.forRoot(args)&#45;&gt;AppModule -->
<g id="edge11" class="edge">
<title>NgCircleProgressModule.forRoot(args)&#45;&gt;AppModule</title>
<path fill="none" stroke="#000000" d="M2292.7239,-122.1061C2292.7239,-122.1061 2292.7239,-140.991 2292.7239,-140.991"/>
<polygon fill="#000000" stroke="#000000" points="2289.2239,-140.9909 2292.7239,-150.991 2296.2239,-140.991 2289.2239,-140.9909"/>
</g>
<!-- IonicModule.forRoot(args) -->
<g id="node13" class="node">
<title>IonicModule.forRoot(args)</title>
<polygon fill="#8dd3c7" stroke="#000000" points="2250.005,-122 2247.005,-126 2226.005,-126 2223.005,-122 2081.995,-122 2081.995,-86 2250.005,-86 2250.005,-122"/>
<text text-anchor="middle" x="2166" y="-99.8" font-family="Times,serif" font-size="14.00" fill="#000000">IonicModule.forRoot(args)</text>
</g>
<!-- IonicModule.forRoot(args)&#45;&gt;AppModule -->
<g id="edge12" class="edge">
<title>IonicModule.forRoot(args)&#45;&gt;AppModule</title>
<path fill="none" stroke="#000000" d="M2242.0872,-122.1061C2242.0872,-122.1061 2242.0872,-140.991 2242.0872,-140.991"/>
<polygon fill="#000000" stroke="#000000" points="2238.5872,-140.9909 2242.0872,-150.991 2245.5872,-140.991 2238.5872,-140.9909"/>
</g>
<!-- HttpClientModule -->
<g id="node14" class="node">
<title>HttpClientModule</title>
<polygon fill="#8dd3c7" stroke="#000000" points="2064.1611,-122 2061.1611,-126 2040.1611,-126 2037.1611,-122 1945.8389,-122 1945.8389,-86 2064.1611,-86 2064.1611,-122"/>
<text text-anchor="middle" x="2005" y="-99.8" font-family="Times,serif" font-size="14.00" fill="#000000">HttpClientModule</text>
</g>
<!-- HttpClientModule&#45;&gt;AppModule -->
<g id="edge13" class="edge">
<title>HttpClientModule&#45;&gt;AppModule</title>
<path fill="none" stroke="#000000" d="M2005,-122.1243C2005,-136.7832 2005,-155 2005,-155 2005,-155 2224.2502,-155 2224.2502,-155"/>
<polygon fill="#000000" stroke="#000000" points="2224.2502,-158.5001 2234.2502,-155 2224.2501,-151.5001 2224.2502,-158.5001"/>
</g>
<!-- TranslateModule.forRoot(args) -->
<g id="node15" class="node">
<title>TranslateModule.forRoot(args)</title>
<polygon fill="#8dd3c7" stroke="#000000" points="1927.8223,-122 1924.8223,-126 1903.8223,-126 1900.8223,-122 1736.1777,-122 1736.1777,-86 1927.8223,-86 1927.8223,-122"/>
<text text-anchor="middle" x="1832" y="-99.8" font-family="Times,serif" font-size="14.00" fill="#000000">TranslateModule.forRoot(args)</text>
</g>
<!-- TranslateModule.forRoot(args)&#45;&gt;AppModule -->
<g id="edge14" class="edge">
<title>TranslateModule.forRoot(args)&#45;&gt;AppModule</title>
<path fill="none" stroke="#000000" d="M1832,-122.2819C1832,-137.9478 1832,-158 1832,-158 1832,-158 2224.2296,-158 2224.2296,-158"/>
<polygon fill="#000000" stroke="#000000" points="2224.2296,-161.5001 2234.2296,-158 2224.2295,-154.5001 2224.2296,-161.5001"/>
</g>
<!-- StatusBar -->
<g id="node17" class="node">
<title>StatusBar</title>
<ellipse fill="#fdb462" stroke="#000000" cx="1663" cy="-104" rx="48.6694" ry="18"/>
<text text-anchor="middle" x="1663" y="-99.8" font-family="Times,serif" font-size="14.00" fill="#000000">StatusBar</text>
</g>
<!-- StatusBar&#45;&gt;AppModule -->
<g id="edge16" class="edge">
<title>StatusBar&#45;&gt;AppModule</title>
<path fill="none" stroke="#000000" d="M1663,-122.0352C1663,-138.7344 1663,-161 1663,-161 1663,-161 2223.866,-161 2223.866,-161"/>
<polygon fill="#000000" stroke="#000000" points="2223.8661,-164.5001 2233.866,-161 2223.866,-157.5001 2223.8661,-164.5001"/>
</g>
<!-- SecureStorage -->
<g id="node18" class="node">
<title>SecureStorage</title>
<ellipse fill="#fdb462" stroke="#000000" cx="1530" cy="-104" rx="66.6113" ry="18"/>
<text text-anchor="middle" x="1530" y="-99.8" font-family="Times,serif" font-size="14.00" fill="#000000">SecureStorage</text>
</g>
<!-- SecureStorage&#45;&gt;AppModule -->
<g id="edge17" class="edge">
<title>SecureStorage&#45;&gt;AppModule</title>
<path fill="none" stroke="#000000" d="M1530,-122.302C1530,-140.2699 1530,-165 1530,-165 1530,-165 2224.2933,-165 2224.2933,-165"/>
<polygon fill="#000000" stroke="#000000" points="2224.2933,-168.5001 2234.2933,-165 2224.2933,-161.5001 2224.2933,-168.5001"/>
</g>
<!-- SplashScreen -->
<g id="node19" class="node">
<title>SplashScreen</title>
<ellipse fill="#fdb462" stroke="#000000" cx="1382" cy="-104" rx="63.1189" ry="18"/>
<text text-anchor="middle" x="1382" y="-99.8" font-family="Times,serif" font-size="14.00" fill="#000000">SplashScreen</text>
</g>
<!-- SplashScreen&#45;&gt;AppModule -->
<g id="edge18" class="edge">
<title>SplashScreen&#45;&gt;AppModule</title>
<path fill="none" stroke="#000000" d="M1382,-122.1686C1382,-141.0898 1382,-168 1382,-168 1382,-168 2224.0796,-168 2224.0796,-168"/>
<polygon fill="#000000" stroke="#000000" points="2224.0797,-171.5001 2234.0796,-168 2224.0796,-164.5001 2224.0797,-171.5001"/>
</g>
<!-- { provide: ErrorHandler, useClass: IonicErrorHandler } -->
<g id="node20" class="node">
<title>{ provide: ErrorHandler, useClass: IonicErrorHandler }</title>
<ellipse fill="#fdb462" stroke="#000000" cx="1075" cy="-104" rx="226.4736" ry="18"/>
<text text-anchor="middle" x="1075" y="-99.8" font-family="Times,serif" font-size="14.00" fill="#000000">{ provide: ErrorHandler, useClass: IonicErrorHandler }</text>
</g>
<!-- { provide: ErrorHandler, useClass: IonicErrorHandler }&#45;&gt;AppModule -->
<g id="edge19" class="edge">
<title>{ provide: ErrorHandler, useClass: IonicErrorHandler }&#45;&gt;AppModule</title>
<path fill="none" stroke="#000000" d="M1075,-122.308C1075,-142.1455 1075,-171 1075,-171 1075,-171 2224.3101,-171 2224.3101,-171"/>
<polygon fill="#000000" stroke="#000000" points="2224.3101,-174.5001 2234.3101,-171 2224.3101,-167.5001 2224.3101,-174.5001"/>
</g>
<!-- KeychainProvider -->
<g id="node21" class="node">
<title>KeychainProvider</title>
<ellipse fill="#fdb462" stroke="#000000" cx="749" cy="-104" rx="81.0821" ry="18"/>
<text text-anchor="middle" x="749" y="-99.8" font-family="Times,serif" font-size="14.00" fill="#000000">KeychainProvider</text>
</g>
<!-- KeychainProvider&#45;&gt;AppModule -->
<g id="edge20" class="edge">
<title>KeychainProvider&#45;&gt;AppModule</title>
<path fill="none" stroke="#000000" d="M749,-122.0267C749,-142.7672 749,-174 749,-174 749,-174 2223.9659,-174 2223.9659,-174"/>
<polygon fill="#000000" stroke="#000000" points="2223.9659,-177.5001 2233.9659,-174 2223.9659,-170.5001 2223.9659,-177.5001"/>
</g>
<!-- LocalizedToastProvider -->
<g id="node22" class="node">
<title>LocalizedToastProvider</title>
<ellipse fill="#fdb462" stroke="#000000" cx="546" cy="-104" rx="103.6296" ry="18"/>
<text text-anchor="middle" x="546" y="-99.8" font-family="Times,serif" font-size="14.00" fill="#000000">LocalizedToastProvider</text>
</g>
<!-- LocalizedToastProvider&#45;&gt;AppModule -->
<g id="edge21" class="edge">
<title>LocalizedToastProvider&#45;&gt;AppModule</title>
<path fill="none" stroke="#000000" d="M546,-122.2921C546,-144.2057 546,-178 546,-178 546,-178 2224.0929,-178 2224.0929,-178"/>
<polygon fill="#000000" stroke="#000000" points="2224.093,-181.5001 2234.0929,-178 2224.0929,-174.5001 2224.093,-181.5001"/>
</g>
<!-- CryptoProvider -->
<g id="node23" class="node">
<title>CryptoProvider</title>
<ellipse fill="#fdb462" stroke="#000000" cx="353" cy="-104" rx="71.2288" ry="18"/>
<text text-anchor="middle" x="353" y="-99.8" font-family="Times,serif" font-size="14.00" fill="#000000">CryptoProvider</text>
</g>
<!-- CryptoProvider&#45;&gt;AppModule -->
<g id="edge22" class="edge">
<title>CryptoProvider&#45;&gt;AppModule</title>
<path fill="none" stroke="#000000" d="M353,-122.2479C353,-145.0179 353,-181 353,-181 353,-181 2224.047,-181 2224.047,-181"/>
<polygon fill="#000000" stroke="#000000" points="2224.0471,-184.5001 2234.047,-181 2224.047,-177.5001 2224.0471,-184.5001"/>
</g>
<!-- PasswordGeneratorProvider -->
<g id="node24" class="node">
<title>PasswordGeneratorProvider</title>
<ellipse fill="#fdb462" stroke="#000000" cx="144" cy="-104" rx="119.8024" ry="18"/>
<text text-anchor="middle" x="144" y="-99.8" font-family="Times,serif" font-size="14.00" fill="#000000">PasswordGeneratorProvider</text>
</g>
<!-- PasswordGeneratorProvider&#45;&gt;AppModule -->
<g id="edge23" class="edge">
<title>PasswordGeneratorProvider&#45;&gt;AppModule</title>
<path fill="none" stroke="#000000" d="M144,-122.1532C144,-145.7566 144,-184 144,-184 144,-184 2223.8917,-184 2223.8917,-184"/>
<polygon fill="#000000" stroke="#000000" points="2223.8918,-187.5001 2233.8917,-184 2223.8917,-180.5001 2223.8918,-187.5001"/>
</g>
</g>
</svg>
