<?xml version="1.0" encoding="UTF-8" standalone="no"?>
<!DOCTYPE svg PUBLIC "-//W3C//DTD SVG 1.1//EN"
 "http://www.w3.org/Graphics/SVG/1.1/DTD/svg11.dtd">
<!-- Generated by graphviz version 2.40.1 (20161225.0304)
 -->
<!-- Title: dependencies Pages: 1 -->
<svg width="504pt" height="211pt"
 viewBox="0.00 0.00 504.00 211.00" xmlns="http://www.w3.org/2000/svg" xmlns:xlink="http://www.w3.org/1999/xlink">
<g id="graph0" class="graph" transform="scale(1 1) rotate(0) translate(4 207)">
<title>dependencies</title>
<polygon fill="#ffffff" stroke="transparent" points="-4,4 -4,-207 500,-207 500,4 -4,4"/>
<text text-anchor="start" x="227.0091" y="-42.4" font-family="sans-serif" font-weight="bold" font-size="14.00" fill="#000000">Legend</text>
<polygon fill="#ffffb3" stroke="transparent" points="14,-10 14,-30 34,-30 34,-10 14,-10"/>
<text text-anchor="start" x="37.629" y="-15.4" font-family="sans-serif" font-size="14.00" fill="#000000"> &#160;Declarations</text>
<polygon fill="#8dd3c7" stroke="transparent" points="127,-10 127,-30 147,-30 147,-10 127,-10"/>
<text text-anchor="start" x="150.7251" y="-15.4" font-family="sans-serif" font-size="14.00" fill="#000000"> &#160;Module</text>
<polygon fill="#80b1d3" stroke="transparent" points="213,-10 213,-30 233,-30 233,-10 213,-10"/>
<text text-anchor="start" x="236.7812" y="-15.4" font-family="sans-serif" font-size="14.00" fill="#000000"> &#160;Bootstrap</text>
<polygon fill="#fdb462" stroke="transparent" points="310,-10 310,-30 330,-30 330,-10 310,-10"/>
<text text-anchor="start" x="333.6732" y="-15.4" font-family="sans-serif" font-size="14.00" fill="#000000"> &#160;Providers</text>
<polygon fill="#fb8072" stroke="transparent" points="406,-10 406,-30 426,-30 426,-10 406,-10"/>
<text text-anchor="start" x="429.7258" y="-15.4" font-family="sans-serif" font-size="14.00" fill="#000000"> &#160;Exports</text>
<g id="clust1" class="cluster">
<title>cluster_PasswordGeneratorPageModule</title>
<polygon fill="none" stroke="#000000" stroke-dasharray="1,5" points="44,-70 44,-195 452,-195 452,-70 44,-70"/>
</g>
<g id="clust2" class="cluster">
<title>cluster_PasswordGeneratorPageModule_declarations</title>
<polygon fill="none" stroke="#000000" points="276,-78 276,-130 444,-130 444,-78 276,-78"/>
</g>
<g id="clust4" class="cluster">
<title>cluster_PasswordGeneratorPageModule_imports</title>
<polygon fill="none" stroke="#000000" points="52,-78 52,-130 268,-130 268,-78 52,-78"/>
</g>
<!-- PasswordGeneratorPage -->
<g id="node1" class="node">
<title>PasswordGeneratorPage</title>
<polygon fill="#ffffb3" stroke="#000000" points="436.3277,-122 283.6723,-122 283.6723,-86 436.3277,-86 436.3277,-122"/>
<text text-anchor="middle" x="360" y="-99.8" font-family="Times,serif" font-size="14.00" fill="#000000">PasswordGeneratorPage</text>
</g>
<!-- PasswordGeneratorPageModule -->
<g id="node2" class="node">
<title>PasswordGeneratorPageModule</title>
<polygon fill="#8dd3c7" stroke="#000000" points="351.3778,-187 348.3778,-191 327.3778,-191 324.3778,-187 154.6222,-187 154.6222,-151 351.3778,-151 351.3778,-187"/>
<text text-anchor="middle" x="253" y="-164.8" font-family="Times,serif" font-size="14.00" fill="#000000">PasswordGeneratorPageModule</text>
</g>
<!-- PasswordGeneratorPage&#45;&gt;PasswordGeneratorPageModule -->
<g id="edge1" class="edge">
<title>PasswordGeneratorPage&#45;&gt;PasswordGeneratorPageModule</title>
<path fill="none" stroke="#000000" d="M317.3875,-122.1061C317.3875,-122.1061 317.3875,-140.991 317.3875,-140.991"/>
<polygon fill="#000000" stroke="#000000" points="313.8875,-140.9909 317.3875,-150.991 320.8875,-140.991 313.8875,-140.9909"/>
</g>
<!-- IonicPageModule.forChild(args) -->
<g id="node3" class="node">
<title>IonicPageModule.forChild(args)</title>
<polygon fill="#8dd3c7" stroke="#000000" points="259.6074,-122 256.6074,-126 235.6074,-126 232.6074,-122 60.3926,-122 60.3926,-86 259.6074,-86 259.6074,-122"/>
<text text-anchor="middle" x="160" y="-99.8" font-family="Times,serif" font-size="14.00" fill="#000000">IonicPageModule.forChild(args)</text>
</g>
<!-- IonicPageModule.forChild(args)&#45;&gt;PasswordGeneratorPageModule -->
<g id="edge2" class="edge">
<title>IonicPageModule.forChild(args)&#45;&gt;PasswordGeneratorPageModule</title>
<path fill="none" stroke="#000000" d="M207.1825,-122.1061C207.1825,-122.1061 207.1825,-140.991 207.1825,-140.991"/>
<polygon fill="#000000" stroke="#000000" points="203.6826,-140.9909 207.1825,-150.991 210.6826,-140.991 203.6826,-140.9909"/>
</g>
</g>
</svg>
