<?xml version="1.0" encoding="UTF-8" standalone="no"?>
<!DOCTYPE svg PUBLIC "-//W3C//DTD SVG 1.1//EN"
 "http://www.w3.org/Graphics/SVG/1.1/DTD/svg11.dtd">
<!-- Generated by graphviz version 2.40.1 (20161225.0304)
 -->
<!-- Title: dependencies Pages: 1 -->
<svg width="504pt" height="211pt"
 viewBox="0.00 0.00 504.00 211.00" xmlns="http://www.w3.org/2000/svg" xmlns:xlink="http://www.w3.org/1999/xlink">
<g id="graph0" class="graph" transform="scale(1 1) rotate(0) translate(4 207)">
<title>dependencies</title>
<polygon fill="#ffffff" stroke="transparent" points="-4,4 -4,-207 500,-207 500,4 -4,4"/>
<text text-anchor="start" x="227.0091" y="-42.4" font-family="sans-serif" font-weight="bold" font-size="14.00" fill="#000000">Legend</text>
<polygon fill="#ffffb3" stroke="transparent" points="14,-10 14,-30 34,-30 34,-10 14,-10"/>
<text text-anchor="start" x="37.629" y="-15.4" font-family="sans-serif" font-size="14.00" fill="#000000"> &#160;Declarations</text>
<polygon fill="#8dd3c7" stroke="transparent" points="127,-10 127,-30 147,-30 147,-10 127,-10"/>
<text text-anchor="start" x="150.7251" y="-15.4" font-family="sans-serif" font-size="14.00" fill="#000000"> &#160;Module</text>
<polygon fill="#80b1d3" stroke="transparent" points="213,-10 213,-30 233,-30 233,-10 213,-10"/>
<text text-anchor="start" x="236.7812" y="-15.4" font-family="sans-serif" font-size="14.00" fill="#000000"> &#160;Bootstrap</text>
<polygon fill="#fdb462" stroke="transparent" points="310,-10 310,-30 330,-30 330,-10 310,-10"/>
<text text-anchor="start" x="333.6732" y="-15.4" font-family="sans-serif" font-size="14.00" fill="#000000"> &#160;Providers</text>
<polygon fill="#fb8072" stroke="transparent" points="406,-10 406,-30 426,-30 426,-10 406,-10"/>
<text text-anchor="start" x="429.7258" y="-15.4" font-family="sans-serif" font-size="14.00" fill="#000000"> &#160;Exports</text>
<g id="clust1" class="cluster">
<title>cluster_SettingsPageModule</title>
<polygon fill="none" stroke="#000000" stroke-dasharray="1,5" points="76,-70 76,-195 420,-195 420,-70 76,-70"/>
</g>
<g id="clust2" class="cluster">
<title>cluster_SettingsPageModule_declarations</title>
<polygon fill="none" stroke="#000000" points="308,-78 308,-130 412,-130 412,-78 308,-78"/>
</g>
<g id="clust4" class="cluster">
<title>cluster_SettingsPageModule_imports</title>
<polygon fill="none" stroke="#000000" points="84,-78 84,-130 300,-130 300,-78 84,-78"/>
</g>
<!-- SettingsPage -->
<g id="node1" class="node">
<title>SettingsPage</title>
<polygon fill="#ffffb3" stroke="#000000" points="404.326,-122 315.674,-122 315.674,-86 404.326,-86 404.326,-122"/>
<text text-anchor="middle" x="360" y="-99.8" font-family="Times,serif" font-size="14.00" fill="#000000">SettingsPage</text>
</g>
<!-- SettingsPageModule -->
<g id="node2" class="node">
<title>SettingsPageModule</title>
<polygon fill="#8dd3c7" stroke="#000000" points="334.8753,-187 331.8753,-191 310.8753,-191 307.8753,-187 203.1247,-187 203.1247,-151 334.8753,-151 334.8753,-187"/>
<text text-anchor="middle" x="269" y="-164.8" font-family="Times,serif" font-size="14.00" fill="#000000">SettingsPageModule</text>
</g>
<!-- SettingsPage&#45;&gt;SettingsPageModule -->
<g id="edge1" class="edge">
<title>SettingsPage&#45;&gt;SettingsPageModule</title>
<path fill="none" stroke="#000000" d="M325.3875,-122.1061C325.3875,-122.1061 325.3875,-140.991 325.3875,-140.991"/>
<polygon fill="#000000" stroke="#000000" points="321.8875,-140.9909 325.3875,-150.991 328.8875,-140.991 321.8875,-140.9909"/>
</g>
<!-- IonicPageModule.forChild(args) -->
<g id="node3" class="node">
<title>IonicPageModule.forChild(args)</title>
<polygon fill="#8dd3c7" stroke="#000000" points="291.6074,-122 288.6074,-126 267.6074,-126 264.6074,-122 92.3926,-122 92.3926,-86 291.6074,-86 291.6074,-122"/>
<text text-anchor="middle" x="192" y="-99.8" font-family="Times,serif" font-size="14.00" fill="#000000">IonicPageModule.forChild(args)</text>
</g>
<!-- IonicPageModule.forChild(args)&#45;&gt;SettingsPageModule -->
<g id="edge2" class="edge">
<title>IonicPageModule.forChild(args)&#45;&gt;SettingsPageModule</title>
<path fill="none" stroke="#000000" d="M247.3081,-122.1061C247.3081,-122.1061 247.3081,-140.991 247.3081,-140.991"/>
<polygon fill="#000000" stroke="#000000" points="243.8081,-140.9909 247.3081,-150.991 250.8081,-140.991 243.8081,-140.9909"/>
</g>
</g>
</svg>
